HIERARCHY
ROOT Hips
{
 OFFSET 0.000000 0.000000 0.000000
 CHANNELS 6 Xposition Yposition Zposition Yrotation Xrotation Zrotation
 JOINT Chest
 {
  OFFSET 0.000000 9.585900 0.002600
  CHANNELS 3 Yrotation Xrotation Zrotation
  JOINT Chest2
  {
   OFFSET 0.000000 9.601200 -0.005300
   CHANNELS 3 Yrotation Xrotation Zrotation
   JOINT Chest3
   {
    OFFSET 0.000000 9.561800 0.000000
    CHANNELS 3 Yrotation Xrotation Zrotation
    JOINT Chest4
    {
     OFFSET 0.000000 9.552100 0.000000
     CHANNELS 3 Yrotation Xrotation Zrotation
     JOINT Neck
     {
      OFFSET 0.000000 14.453000 0.000000
      CHANNELS 3 Yrotation Xrotation Zrotation
      JOINT Head
      {
       OFFSET 0.000000 8.936500 -0.011300
       CHANNELS 3 Yrotation Xrotation Zrotation
       End Site
       {
        OFFSET 0.000000 17.073600 -0.006000
       }
      }
     }
     JOINT RightCollar
     {
      OFFSET -2.921100 9.558500 0.000000
      CHANNELS 3 Yrotation Xrotation Zrotation
      JOINT RightShoulder
      {
       OFFSET -13.519700 0.000000 0.000000
       CHANNELS 3 Yrotation Xrotation Zrotation
       JOINT RightElbow
       {
        OFFSET 0.000000 -29.696600 0.000000
        CHANNELS 3 Yrotation Xrotation Zrotation
        JOINT RightWrist
        {
         OFFSET 0.000000 -24.004700 0.000000
         CHANNELS 3 Yrotation Xrotation Zrotation
         End Site
         {
          OFFSET 0.000000 -17.728500 0.000000
         }
        }
       }
      }
     }
     JOINT LeftCollar
     {
      OFFSET 2.921100 9.558500 0.000000
      CHANNELS 3 Yrotation Xrotation Zrotation
      JOINT LeftShoulder
      {
       OFFSET 13.519700 0.000000 0.000000
       CHANNELS 3 Yrotation Xrotation Zrotation
       JOINT LeftElbow
       {
        OFFSET 0.000000 -29.696600 0.000000
        CHANNELS 3 Yrotation Xrotation Zrotation
        JOINT LeftWrist
        {
         OFFSET 0.000000 -24.004700 0.000000
         CHANNELS 3 Yrotation Xrotation Zrotation
         End Site
         {
          OFFSET 0.000000 -17.728500 0.000000
         }
        }
       }
      }
     }
    }
   }
  }
 }
 JOINT RightHip
 {
  OFFSET -7.771700 -0.012900 -0.001300
  CHANNELS 3 Yrotation Xrotation Zrotation
  JOINT RightKnee
  {
   OFFSET 0.000000 -40.869800 0.001200
   CHANNELS 3 Yrotation Xrotation Zrotation
   JOINT RightAnkle
   {
    OFFSET 0.000000 -39.717900 0.002100
    CHANNELS 3 Yrotation Xrotation Zrotation
    JOINT RightToe
    {
     OFFSET 0.000000 -4.965400 11.033500
     CHANNELS 3 Yrotation Xrotation Zrotation
     End Site
     {
      OFFSET 0.000000 -1.423100 5.872300
     }
    }
   }
  }
 }
 JOINT LeftHip
 {
  OFFSET 7.771700 -0.012900 -0.001300
  CHANNELS 3 Yrotation Xrotation Zrotation
  JOINT LeftKnee
  {
   OFFSET 0.000000 -40.869800 0.001200
   CHANNELS 3 Yrotation Xrotation Zrotation
   JOINT LeftAnkle
   {
    OFFSET 0.000000 -39.717900 0.002100
    CHANNELS 3 Yrotation Xrotation Zrotation
    JOINT LeftToe
    {
     OFFSET 0.000000 -4.965400 11.033500
     CHANNELS 3 Yrotation Xrotation Zrotation
     End Site
     {
      OFFSET 0.000000 -1.423100 5.872300
     }
    }
   }
  }
 }
}
MOTION
Frames: 5
Frame Time: 0.008333
0.000000 85.388000 0.000000 0.000000 -5.767877 0.000000 0.000000 11.653817 0.000000 0.000000 -5.885947 0.000000 0.000000 -0.000000 0.000000 0.000000 -0.000000 0.000000 0.000000 12.528835 0.000000 0.000000 0.711642 0.000000 0.000000 -0.000000 0.000000 0.000000 0.000000 -90.000000 0.000000 -2.309062 0.000000 0.000000 2.309062 0.000000 0.000000 -0.000000 0.000000 0.000000 -0.000000 90.000000 0.000000 -2.309062 0.000000 0.000000 2.309062 0.000000 0.000000 8.520406 0.000000 0.000000 1.905762 0.000000 -0.000000 -4.658285 0.000000 0.000000 -0.000000 0.000000 0.000000 8.520406 0.000000 0.000000 1.905762 0.000000 -0.000000 -4.658285 0.000000 0.000000 -0.000000 0.000000
-28.740119 50.703110 26.439076 159.686155 -6.495964 -1.525453 0.530644 5.491258 0.696890 0.014322 0.165437 0.002140 0.015573 0.328861 0.003942 0.310232 5.240349 0.069857 -2.360256 16.879209 -0.243960 -4.307159 -4.468949 0.353519 3.914515 4.151343 -0.308529 5.873342 -14.771977 -18.285588 51.167995 -45.736611 -13.158629 -0.533048 -12.183785 -42.100466 -3.148840 -0.334820 2.275468 -2.917772 -1.425891 21.011085 -70.421677 -61.718253 32.504318 -3.698248 -5.417336 36.041921 -10.274166 -73.406104 9.659576 -131.270510 83.178920 -130.201108 -3.320396 -15.957644 -0.657220 -0.212266 0.535473 -0.048747 -9.860590 -77.065327 34.189237 118.999443 79.475114 114.364526 -17.091369 -22.598531 1.985834 -0.158050 -0.831056 -0.121795
-28.743314 50.704153 26.435126 159.657770 -6.502634 -1.524226 0.558513 5.506582 0.696806 0.011380 0.178877 0.002485 0.018575 0.312756 0.005472 0.319356 5.259302 0.079450 -2.277607 16.843045 -0.226355 -4.177052 -4.519873 0.367708 3.934657 4.137508 -0.310248 5.917183 -14.748022 -18.383549 51.084921 -45.803319 -13.082788 -0.545748 -12.208577 -42.098173 -3.204453 -0.316362 2.170593 -2.779122 -1.489765 20.998399 -70.525618 -61.708832 32.660484 -3.648579 -5.308457 35.992205 -10.234965 -73.404315 9.659840 -131.226072 83.174643 -130.174969 -3.310626 -15.946214 -0.638550 -0.231644 0.528167 -0.058582 -9.888101 -77.045507 34.200917 118.980928 79.468397 114.367439 -17.044937 -22.625978 1.959934 -0.158373 -0.820377 -0.134977
-28.750806 50.704583 26.432678 159.637786 -6.491626 -1.505801 0.580194 5.499444 0.677667 0.011964 0.179052 0.002697 0.014871 0.314285 0.007365 0.340361 5.271087 0.087051 -2.201680 16.812463 -0.205164 -4.045809 -4.556342 0.384626 3.951033 4.131753 -0.312842 5.957848 -14.722772 -18.484255 50.977087 -45.872263 -13.012070 -0.553666 -12.212956 -42.111890 -3.262672 -0.297553 2.082820 -2.643374 -1.541674 20.976771 -70.630992 -61.712237 32.819177 -3.663742 -5.232701 35.886485 -10.165834 -73.421059 9.614270 -131.198574 83.174495 -130.166455 -3.305354 -15.949531 -0.624047 -0.242937 0.535466 -0.065261 -9.901508 -77.037696 34.156186 118.863704 79.432046 114.262389 -16.949557 -22.653973 1.929805 -0.201298 -0.808540 -0.157702
-28.753773 50.704910 26.430649 159.621982 -6.488729 -1.514408 0.601559 5.496604 0.686096 0.014627 0.179401 0.001357 0.012667 0.317080 0.008447 0.354354 5.272147 0.093474 -2.119380 16.793184 -0.182491 -3.916788 -4.583309 0.406066 3.977936 4.140479 -0.315800 5.994469 -14.697921 -18.584551 50.910908 -45.935836 -12.924079 -0.585514 -12.240296 -42.130221 -3.315131 -0.262028 1.992862 -2.506939 -1.588493 20.966622 -70.734770 -61.730940 32.982077 -3.681174 -5.160433 35.764310 -10.162832 -73.428265 9.638370 -131.152541 83.168445 -130.129025 -3.301040 -15.939880 -0.613767 -0.247964 0.528208 -0.069949 -9.979572 -77.033796 34.205860 118.807547 79.413314 114.234786 -16.924230 -22.662514 1.895221 -0.168171 -0.808057 -0.126558
